<svg xmlns="http://www.w3.org/2000/svg" xmlns:xlink="http://www.w3.org/1999/xlink" style="margin:auto;background:0 0;display:block;shape-rendering:auto" width="311" height="311" preserveAspectRatio="xMidYMid" viewBox="0 0 100 100"><g transform="rotate(0 50 50)"><rect width="4" height="13" x="48" y="23.5" fill="#0e1315" rx=".78" ry=".78"><animate attributeName="opacity" begin="-1.160337552742616s" dur="1.2658227848101264s" keyTimes="0;1" repeatCount="indefinite" values="1;0"/></rect></g><g transform="rotate(30 50 50)"><rect width="4" height="13" x="48" y="23.5" fill="#0e1315" rx=".78" ry=".78"><animate attributeName="opacity" begin="-1.0548523206751055s" dur="1.2658227848101264s" keyTimes="0;1" repeatCount="indefinite" values="1;0"/></rect></g><g transform="rotate(60 50 50)"><rect width="4" height="13" x="48" y="23.5" fill="#0e1315" rx=".78" ry=".78"><animate attributeName="opacity" begin="-0.9493670886075949s" dur="1.2658227848101264s" keyTimes="0;1" repeatCount="indefinite" values="1;0"/></rect></g><g transform="rotate(90 50 50)"><rect width="4" height="13" x="48" y="23.5" fill="#0e1315" rx=".78" ry=".78"><animate attributeName="opacity" begin="-0.8438818565400843s" dur="1.2658227848101264s" keyTimes="0;1" repeatCount="indefinite" values="1;0"/></rect></g><g transform="rotate(120 50 50)"><rect width="4" height="13" x="48" y="23.5" fill="#0e1315" rx=".78" ry=".78"><animate attributeName="opacity" begin="-0.7383966244725738s" dur="1.2658227848101264s" keyTimes="0;1" repeatCount="indefinite" values="1;0"/></rect></g><g transform="rotate(150 50 50)"><rect width="4" height="13" x="48" y="23.5" fill="#0e1315" rx=".78" ry=".78"><animate attributeName="opacity" begin="-0.6329113924050632s" dur="1.2658227848101264s" keyTimes="0;1" repeatCount="indefinite" values="1;0"/></rect></g><g transform="rotate(180 50 50)"><rect width="4" height="13" x="48" y="23.5" fill="#0e1315" rx=".78" ry=".78"><animate attributeName="opacity" begin="-0.5274261603375527s" dur="1.2658227848101264s" keyTimes="0;1" repeatCount="indefinite" values="1;0"/></rect></g><g transform="rotate(210 50 50)"><rect width="4" height="13" x="48" y="23.5" fill="#0e1315" rx=".78" ry=".78"><animate attributeName="opacity" begin="-0.42194092827004215s" dur="1.2658227848101264s" keyTimes="0;1" repeatCount="indefinite" values="1;0"/></rect></g><g transform="rotate(240 50 50)"><rect width="4" height="13" x="48" y="23.5" fill="#0e1315" rx=".78" ry=".78"><animate attributeName="opacity" begin="-0.3164556962025316s" dur="1.2658227848101264s" keyTimes="0;1" repeatCount="indefinite" values="1;0"/></rect></g><g transform="rotate(270 50 50)"><rect width="4" height="13" x="48" y="23.5" fill="#0e1315" rx=".78" ry=".78"><animate attributeName="opacity" begin="-0.21097046413502107s" dur="1.2658227848101264s" keyTimes="0;1" repeatCount="indefinite" values="1;0"/></rect></g><g transform="rotate(300 50 50)"><rect width="4" height="13" x="48" y="23.5" fill="#0e1315" rx=".78" ry=".78"><animate attributeName="opacity" begin="-0.10548523206751054s" dur="1.2658227848101264s" keyTimes="0;1" repeatCount="indefinite" values="1;0"/></rect></g><g transform="rotate(330 50 50)"><rect width="4" height="13" x="48" y="23.5" fill="#0e1315" rx=".78" ry=".78"><animate attributeName="opacity" begin="0s" dur="1.2658227848101264s" keyTimes="0;1" repeatCount="indefinite" values="1;0"/></rect></g></svg>